<svg width="47" height="47" viewBox="0 0 47 47" fill="none" xmlns="http://www.w3.org/2000/svg">
<path d="M21.675 0.05185C16.101 0.46585 11.017 2.75785 7.025 6.65885C1.77499 11.7809 -0.744997 19.0328 0.187006 26.3189C1.34901 35.4269 7.77298 43.0128 16.597 45.6988C23.419 47.7758 31.01 46.5438 36.794 42.4288C43.901 37.3658 47.597 28.9689 46.5 20.3708C45.338 11.2628 38.914 3.67685 30.09 0.99085C27.3637 0.178949 24.5141 -0.138057 21.676 0.0548497L21.675 0.05185Z" fill="white"/>
<path d="M21.6785 0.0518365C16.1045 0.465837 11.0205 2.75784 7.02853 6.65884C1.77853 11.7808 -0.741463 19.0328 0.190537 26.3188C1.35254 35.4268 7.77654 43.0128 16.6005 45.6988C23.4225 47.7758 31.0135 46.5438 36.7975 42.4288C43.9045 37.3658 47.6005 28.9688 46.5035 20.3708C45.3415 11.2628 38.9175 3.67684 30.0935 0.990837C27.3673 0.178936 24.5176 -0.13807 21.6795 0.0548363L21.6785 0.0518365ZM23.4585 14.5188C24.6525 14.6368 25.2505 14.8258 25.5185 15.1748C25.5885 15.2718 25.7015 15.5088 25.7655 15.7018C25.9055 16.1118 25.9105 16.5788 25.8255 20.0758C25.7715 22.2598 25.8035 22.9328 25.9815 23.4158C26.1815 23.9698 26.6535 24.2228 27.0615 24.0128C27.4315 23.8188 28.2985 22.8668 28.8635 22.0228C30.1705 20.0858 30.9675 18.5848 31.9235 16.2658C32.1175 15.8088 32.3755 15.5058 32.6435 15.4358C32.7515 15.4038 34.2735 15.3758 36.1455 15.3708L39.4555 15.3608L39.7355 15.4788C39.8923 15.5284 40.0275 15.6301 40.1184 15.7671C40.2094 15.9041 40.2507 16.0681 40.2355 16.2318C40.2355 16.9578 39.4755 18.4488 38.1755 20.2718C37.9975 20.5248 37.3255 21.4178 36.6755 22.2618C35.2605 24.1218 34.9535 24.5588 34.7385 25.0118C34.4685 25.5818 34.5345 26.0498 34.9585 26.6038C35.0825 26.7598 35.7065 27.3888 36.3465 28.0038C38.1385 29.7198 38.9505 30.6238 39.6125 31.6038C40.0855 32.3198 40.2685 32.8468 40.1925 33.2988C40.1545 33.5458 39.9075 33.8418 39.6275 33.9888C39.2935 34.1558 38.7825 34.1888 35.9695 34.2258L33.3065 34.2638L32.8765 34.1188C31.7785 33.7528 31.0465 33.1448 29.3845 31.2188C28.4645 30.1538 27.7815 29.6318 27.3075 29.6268C26.8715 29.6268 26.3075 30.2068 26.0805 30.9288C25.9205 31.4128 25.8605 31.7838 25.8105 32.6238C25.7505 33.6238 25.6325 33.8438 25.0255 34.0978C24.8055 34.1948 22.0615 34.2278 21.3355 34.1518C19.8775 33.9918 18.5275 33.5318 17.1875 32.7518C15.2455 31.6118 14.0575 30.5888 12.7815 28.9638C10.5645 26.1338 9.05354 23.7238 7.21854 20.0868C6.51854 18.6718 5.67454 16.8428 5.53854 16.4068C5.40354 15.9548 5.59854 15.5838 6.03854 15.4438C6.18854 15.3958 7.03853 15.3688 8.96553 15.3418L11.6825 15.3148L11.9995 15.4328C12.4995 15.6268 12.6995 15.8728 13.0495 16.6968C13.3395 17.3908 14.9055 20.5328 15.3955 21.4098C15.8955 22.2978 16.4285 23.0398 16.8955 23.4798C17.4605 24.0338 17.7135 24.1698 18.1115 24.1358C18.4515 24.1038 18.5415 24.0278 18.7515 23.5708C19.2615 22.4678 19.3435 18.7408 18.8865 17.2758C18.6225 16.4418 18.2305 16.1258 17.1435 15.8928C16.9555 15.8498 16.9555 15.7848 17.1275 15.5328C17.5475 14.9298 18.2945 14.6398 19.7205 14.5228C20.5005 14.4578 22.8135 14.4528 23.4545 14.5178L23.4585 14.5188Z" fill="#0E1220"/>
</svg>
