<?xml version="1.0" encoding="utf-8"?>
<!-- Generator: Adobe Illustrator 26.0.3, SVG Export Plug-In . SVG Version: 6.00 Build 0)  -->
<svg version="1.0" id="Layer_1" xmlns="http://www.w3.org/2000/svg" xmlns:xlink="http://www.w3.org/1999/xlink" x="0px" y="0px"
	 viewBox="0 0 930 665.8" style="enable-background:new 0 0 930 665.8;" xml:space="preserve">
<style type="text/css">
	.st0{fill:#FF6200;}
</style>
<path class="st0" d="M830,380.1c-3.1,0-5.7,2.6-7,8.7c-2.6,12.7-5.2,25.8-17,25.3c-7.4,0-9.6-10.9-9.2-13.5l1.3-68.5
	c0.5-6.8-4.6-12.7-11.4-13.1c-0.7,0-1.4,0-2.1,0c-3.9,0-9.2,0.9-9.2,3.1s3,2.6,2.6,11.4l-0.9,41c0,20.5-13.1,39.3-24.4,38.9
	c0,0-25.3,7.9-10.5-78.6c1.3-6.5,6.5-15.7-4.4-16.1c-15.3-0.4-13.5,5.7-15.7,10.5c-2.8,20.1-4.4,40.4-4.8,60.7v1.3
	c-3.5,10.5-8.7,21-17.5,20.5c-6.1,0-10-4.4-9.6-13.5l1.3-89.5c15.3,0.4,30.6,0.4,54.1,0.4c7.4,0,10.9-27.9,2.2-19.6
	c-19.6,0.4-38.4,0.4-55.9,0.4l0.4-27.5c0-7-6.1-13.1-15.7-13.1c-3.9,0-9.2,0.9-9.6,3.1s3.1,2.6,2.6,11.4l-0.4,25.8
	c-15.7-0.4-26.2-1.3-26.2-1.3c-8.3,0-3.5,19.6,5.7,19.6c6.7,0.6,13.4,0.9,20.1,0.9l-1.3,75.5c-3.1,12.2-8.7,27.5-19.2,27.1
	c-7.4,0-7.4-10.9-7.4-13.5l0.9-54.6c0.4-13.5-4.4-29.7-23.6-29.7c-14.4-0.4-24.9,12.2-33.2,28.4v-13.1c0-7-6.1-13.1-15.7-13.1
	c-3.9,0-7.4,1.8-7.9,4.8c0.4,3,0.7,6.1,0.9,9.2l-0.9,45c-0.5,1.3-0.9,2.6-1.3,3.9c-2.6,12.7-8.3,31.4-20.1,31c-7,0-10-7-9.6-13.5
	l0.9-42.4c0-7-6.1-13.1-15.7-13.1c-3.9,0-7.9,1.8-7.9,4.8c0.7,3,1,6.1,0.9,9.2l-0.4,39.3c-3.5,8.3-8.7,14.8-16.6,14.8
	c-10,0-16.6-9.2-16.1-24.5c0.9-41.9,27.1-54.6,48.9-54.6c3.1,0,5.7,0.9,8.3,0.9s3.9-1.7,3.9-6.5c0.1-6.9-5.5-12.6-12.4-12.7
	c-0.2,0-0.5,0-0.7,0c-35.8-0.4-69.9,22.7-70.7,71.6c-0.1,2.2,0.1,4.4,0.4,6.5c-3.5,9.6-8.3,17.9-16.6,17.9c-4.6-0.2-8.5-3.4-9.6-7.9
	l2.2-136.2c0-12.7-5.7-18.8-15.3-18.8c-3.9,0-9.2,0.9-9.6,3.1s3,2.6,2.6,11.4l-0.9,51.5c-31.9,3.9-59.4,23.6-60.2,68.1v6.1
	c-5.7,11.8-15.3,21.4-31.4,21c-10.6,0.4-20.5-5.6-25.1-15.2l0,0c26.6-15.7,44.1-31.9,44.5-51.5c0.4-17.5-9.6-29.7-25.8-30.1
	c-22.3-0.4-46.3,22.3-46.7,59.4c0.2,6.2,1.1,12.3,2.6,18.3c-15,11.9-31.7,21.4-49.6,28.2c12-55.8,23.7-105.7,35.9-163.6
	c3.5-11.4,7.4-14,4.8-16.1c-6.1-5.2-24-3.5-26.6,10c-6.1,32.3-15.3,73.3-22.7,104.8c-11.9-1.3-23.9,1.5-34,7.9
	c-15.3-24-35.8-58.1-52.8-85.1c-6.5-10.5-24.5-7-28.4,0c-1.8,3.1,2.2,2.6,7.9,11.8c33.2,49.8,57.2,95.2,93.9,142.3
	c3,4.1,8.4,5.6,13.1,3.8v0.6l6.2-3l-5.7,3c16.6-2.6,37.6-11.8,64.6-28.8c8.3,15.5,24.7,25,42.4,24.5c15.4,1.1,30.5-4.9,41-16.1
	c6.1,10.9,17.7,17.4,30.1,17c9.8-0.1,19.2-4,26.1-10.8c4.7,7.5,13,11.9,21.8,11.8c11.3-0.1,21.9-5.6,28.4-14.8
	c5.7,9.8,16.2,15.8,27.5,15.7c9.7,0,18.9-4.1,25.3-11.4c4.8,7.7,13.2,12.3,22.3,12.2c10.1,0,19.7-4.5,26.2-12.2
	c0,10.5,7.9,12.7,14,12.7c8.3,0,8.3-7,8.3-12.2l0.9-42.8c2.6-23.1,20.9-41.9,29.2-41.9c5.7,0,6.1,7.9,5.7,16.6l-0.9,53.3
	c-0.4,14.8,8.7,27.5,24,27.9c10.8-0.1,20.9-5.1,27.5-13.5c3.8,9.3,13.1,15.1,23.1,14.4c11.2,0,21.8-5.3,28.4-14.4
	c4.6,9.6,14.3,15.7,24.9,15.7c12.7,0,22.3-8.3,29.7-20.5c1.2,12.1,11.5,21.2,23.6,21c25.3,0.4,34-20.1,39.7-39.3
	c0.3-0.7,0.4-1.4,0.4-2.2C840,386.7,834.8,380.1,830,380.1z M305.6,328.2c3.9,0,6.1,3.9,6.1,10.5c-0.4,17.5-12.2,26.2-25.3,34.5
	c0-1.8-0.4-3.5-0.4-5.2C285.6,355.2,291.2,328.2,305.6,328.2z M406,397.6c-3.2,6.6-9.7,10.9-17,11.3c-10,0-19.6-9.2-19.2-30.1
	c0.4-36.7,18.3-49.8,37.5-53.3L406,397.6z"/>
</svg>
